<svg xmlns="http://www.w3.org/2000/svg" width="800" height="700" viewBox="0 0 800 700"><defs><linearGradient id="g" x1="0" y1="0" x2="1" y2="1"><stop stop-color="#f2df9b"/><stop offset="1" stop-color="#fff"/></linearGradient></defs><rect width="800" height="700" fill="url(#g)"/><circle cx="80" cy="180" r="48" fill="#d4af37" opacity=".85"/><path d="M80 230 Q65 400 75 620" stroke="#556b2f" stroke-width="12" fill="none"/><circle cx="170" cy="250" r="48" fill="#d4af37" opacity=".85"/><path d="M170 230 Q155 400 165 620" stroke="#556b2f" stroke-width="12" fill="none"/><circle cx="260" cy="180" r="48" fill="#d4af37" opacity=".85"/><path d="M260 230 Q245 400 255 620" stroke="#556b2f" stroke-width="12" fill="none"/><circle cx="350" cy="250" r="48" fill="#d4af37" opacity=".85"/><path d="M350 230 Q335 400 345 620" stroke="#556b2f" stroke-width="12" fill="none"/><circle cx="440" cy="180" r="48" fill="#d4af37" opacity=".85"/><path d="M440 230 Q425 400 435 620" stroke="#556b2f" stroke-width="12" fill="none"/><circle cx="530" cy="250" r="48" fill="#d4af37" opacity=".85"/><path d="M530 230 Q515 400 525 620" stroke="#556b2f" stroke-width="12" fill="none"/><circle cx="620" cy="180" r="48" fill="#d4af37" opacity=".85"/><path d="M620 230 Q605 400 615 620" stroke="#556b2f" stroke-width="12" fill="none"/><circle cx="710" cy="250" r="48" fill="#d4af37" opacity=".85"/><path d="M710 230 Q695 400 705 620" stroke="#556b2f" stroke-width="12" fill="none"/></svg>